<mxfile host="app.diagrams.net" modified="2024-02-17T16:23:32.176Z" agent="Mozilla/5.0 (Windows NT 10.0; Win64; x64) AppleWebKit/537.36 (KHTML, like Gecko) Chrome/121.0.0.0 Safari/537.36" etag="PsTXwyoUMY5nYbeM3taJ" version="23.1.5" type="device" pages="2">
  <diagram name="PÃ¡gina-1" id="4TNwL2eoXPIQ-F_cQECd">
    <mxGraphModel dx="1261" dy="890" grid="1" gridSize="10" guides="1" tooltips="1" connect="1" arrows="1" fold="1" page="1" pageScale="1" pageWidth="690" pageHeight="600" math="0" shadow="0">
      <root>
        <mxCell id="0" />
        <mxCell id="1" parent="0" />
        <mxCell id="9oqAk7pQBYiyUqh1W1pA-3" value="&lt;br style=&quot;font-size: 11px;&quot;&gt;&lt;br style=&quot;font-size: 11px;&quot;&gt;&lt;br&gt;&lt;b&gt;&lt;font style=&quot;font-size: 14px;&quot;&gt;MQTT Broker&lt;/font&gt;&lt;/b&gt;" style="ellipse;shape=cloud;whiteSpace=wrap;html=1;" parent="1" vertex="1">
          <mxGeometry x="490" y="-290" width="250" height="200" as="geometry" />
        </mxCell>
        <mxCell id="9oqAk7pQBYiyUqh1W1pA-11" style="rounded=0;orthogonalLoop=1;jettySize=auto;html=1;exitX=1;exitY=0.5;exitDx=0;exitDy=0;dashed=1;endArrow=open;endFill=0;strokeWidth=4;dashPattern=1 1;strokeColor=#3399FF;edgeStyle=orthogonalEdgeStyle;curved=1;entryX=0.07;entryY=0.4;entryDx=0;entryDy=0;entryPerimeter=0;" parent="1" source="9oqAk7pQBYiyUqh1W1pA-17" target="9oqAk7pQBYiyUqh1W1pA-3" edge="1">
          <mxGeometry relative="1" as="geometry" />
        </mxCell>
        <mxCell id="9oqAk7pQBYiyUqh1W1pA-16" style="rounded=0;orthogonalLoop=1;jettySize=auto;html=1;dashed=1;endArrow=block;endFill=0;strokeWidth=4;dashPattern=1 1;strokeColor=#33FF33;entryX=0.81;entryY=0.81;entryDx=0;entryDy=0;entryPerimeter=0;targetPerimeterSpacing=12;edgeStyle=orthogonalEdgeStyle;curved=1;exitX=0;exitY=0.5;exitDx=0;exitDy=0;" parent="1" source="9oqAk7pQBYiyUqh1W1pA-19" target="9oqAk7pQBYiyUqh1W1pA-1" edge="1">
          <mxGeometry relative="1" as="geometry">
            <mxPoint x="750" y="95" as="sourcePoint" />
            <mxPoint x="450" y="-25" as="targetPoint" />
          </mxGeometry>
        </mxCell>
        <mxCell id="9oqAk7pQBYiyUqh1W1pA-17" value="&lt;b&gt;&lt;br&gt;X alarm state:&lt;br&gt;&lt;/b&gt;- active: false/true&lt;br&gt;- bootTime: &amp;lt;timestamp&amp;gt;&lt;br&gt;&lt;br&gt;&lt;b&gt;X alarm trigger:&lt;br&gt;&lt;/b&gt;- shooting occurrence&lt;br&gt;- time: &amp;lt;timestamp&amp;gt;&lt;br&gt;- location of the shooting" style="rounded=1;whiteSpace=wrap;html=1;align=left;spacing=12;strokeColor=default;dashed=1;dashPattern=1 4;" parent="1" vertex="1">
          <mxGeometry x="280" y="-277.5" width="160" height="150" as="geometry" />
        </mxCell>
        <mxCell id="9oqAk7pQBYiyUqh1W1pA-18" style="rounded=0;orthogonalLoop=1;jettySize=auto;html=1;exitX=0.917;exitY=-0.017;exitDx=0;exitDy=0;dashed=1;endArrow=none;endFill=0;strokeWidth=4;dashPattern=1 1;strokeColor=#3399FF;edgeStyle=orthogonalEdgeStyle;curved=1;entryX=0;entryY=0.5;entryDx=0;entryDy=0;exitPerimeter=0;" parent="1" source="9oqAk7pQBYiyUqh1W1pA-1" target="9oqAk7pQBYiyUqh1W1pA-17" edge="1">
          <mxGeometry relative="1" as="geometry">
            <mxPoint x="440" y="-180" as="sourcePoint" />
            <mxPoint x="518" y="-200" as="targetPoint" />
          </mxGeometry>
        </mxCell>
        <mxCell id="9oqAk7pQBYiyUqh1W1pA-19" value="&lt;b&gt;Receive...&lt;br&gt;&lt;/b&gt;&amp;nbsp;* alarm: on/off&lt;br&gt;&lt;font color=&quot;#ec0909&quot;&gt;&amp;nbsp;* test instructions&lt;/font&gt;" style="rounded=1;whiteSpace=wrap;html=1;align=left;spacing=12;dashed=1;dashPattern=1 4;" parent="1" vertex="1">
          <mxGeometry x="320" y="-70" width="130" height="80" as="geometry" />
        </mxCell>
        <mxCell id="9oqAk7pQBYiyUqh1W1pA-20" style="rounded=0;orthogonalLoop=1;jettySize=auto;html=1;dashed=1;endArrow=none;endFill=0;strokeWidth=4;dashPattern=1 1;strokeColor=#33FF33;entryX=1;entryY=0.25;entryDx=0;entryDy=0;targetPerimeterSpacing=12;edgeStyle=orthogonalEdgeStyle;curved=1;exitX=0.13;exitY=0.77;exitDx=0;exitDy=0;exitPerimeter=0;" parent="1" source="9oqAk7pQBYiyUqh1W1pA-3" target="9oqAk7pQBYiyUqh1W1pA-19" edge="1">
          <mxGeometry relative="1" as="geometry">
            <mxPoint x="340" y="30" as="sourcePoint" />
            <mxPoint x="205" y="93" as="targetPoint" />
          </mxGeometry>
        </mxCell>
        <mxCell id="ss5tVFTJKGDQnba2Y7XJ-2" value="" style="group" parent="1" vertex="1" connectable="0">
          <mxGeometry x="490" y="-600" width="250" height="230" as="geometry" />
        </mxCell>
        <mxCell id="ss5tVFTJKGDQnba2Y7XJ-1" value="" style="shape=image;verticalLabelPosition=bottom;labelBackgroundColor=default;verticalAlign=top;aspect=fixed;imageAspect=0;image=https://blogger.googleusercontent.com/img/b/R29vZ2xl/AVvXsEjwlN7V_6GKkcCeVNo3I_IOl177hIQg9uXNdrK3WPSJ8xhzbD5BRuAVYUc0ebj7yVtlZ2w3KLSwXH0Z5Ezh5OSnin7FJL8QQh3cbvH1BHZbyX3Z6XMmPuqYIJq8_PMh2JAiUVKAiLcZxIIE/w1200-h630-p-k-no-nu/image00.png;" parent="ss5tVFTJKGDQnba2Y7XJ-2" vertex="1">
          <mxGeometry x="30" y="30" width="205" height="107.63" as="geometry" />
        </mxCell>
        <mxCell id="ss5tVFTJKGDQnba2Y7XJ-15" value="Submit all changes to the database to record the changes" style="rounded=1;whiteSpace=wrap;html=1;align=center;spacing=12;dashed=1;dashPattern=1 4;" parent="ss5tVFTJKGDQnba2Y7XJ-2" vertex="1">
          <mxGeometry x="160" y="170" width="200" height="60" as="geometry" />
        </mxCell>
        <mxCell id="s5wiWTUJ9Tn86RPmhMHe-1" value="&lt;b style=&quot;font-size: 14px;&quot;&gt;&lt;br&gt;&lt;br&gt;&lt;br&gt;&amp;nbsp; &amp;nbsp; &amp;nbsp;Real Time Database&lt;/b&gt;" style="ellipse;shape=cloud;whiteSpace=wrap;html=1;fillColor=none;" parent="ss5tVFTJKGDQnba2Y7XJ-2" vertex="1">
          <mxGeometry width="250" height="200" as="geometry" />
        </mxCell>
        <mxCell id="ss5tVFTJKGDQnba2Y7XJ-9" style="rounded=0;orthogonalLoop=1;jettySize=auto;html=1;dashed=1;endArrow=block;endFill=0;strokeWidth=4;dashPattern=1 1;strokeColor=#33FF33;entryX=0.937;entryY=0.576;entryDx=0;entryDy=0;entryPerimeter=0;targetPerimeterSpacing=12;edgeStyle=orthogonalEdgeStyle;curved=1;exitX=0;exitY=0.5;exitDx=0;exitDy=0;" parent="1" source="ss5tVFTJKGDQnba2Y7XJ-10" target="9oqAk7pQBYiyUqh1W1pA-3" edge="1">
          <mxGeometry relative="1" as="geometry">
            <mxPoint x="968" y="192" as="sourcePoint" />
            <mxPoint x="380" y="209" as="targetPoint" />
          </mxGeometry>
        </mxCell>
        <mxCell id="ss5tVFTJKGDQnba2Y7XJ-10" value="&lt;b&gt;When the status OR configurations changes, send...&lt;/b&gt;&lt;br&gt;- alarm: on/off&lt;br&gt;&lt;font color=&quot;#ec0909&quot;&gt;- test modules&lt;/font&gt;" style="rounded=1;whiteSpace=wrap;html=1;align=left;spacing=12;dashed=1;dashPattern=1 4;" parent="1" vertex="1">
          <mxGeometry x="780" y="-120" width="160" height="140" as="geometry" />
        </mxCell>
        <mxCell id="ss5tVFTJKGDQnba2Y7XJ-13" value="&lt;b style=&quot;border-color: var(--border-color);&quot;&gt;In case from test usage MQTT direclty:&lt;/b&gt;&lt;br style=&quot;border-color: var(--border-color);&quot;&gt;&amp;nbsp;* shooting occurrence&lt;br style=&quot;border-color: var(--border-color);&quot;&gt;&amp;nbsp;* location of the shooting" style="rounded=1;whiteSpace=wrap;html=1;align=left;spacing=12;dashed=1;dashPattern=1 4;" parent="1" vertex="1">
          <mxGeometry x="800" y="-250" width="160" height="95" as="geometry" />
        </mxCell>
        <mxCell id="ss5tVFTJKGDQnba2Y7XJ-14" style="rounded=0;orthogonalLoop=1;jettySize=auto;html=1;dashed=1;endArrow=none;endFill=0;strokeWidth=4;dashPattern=1 1;strokeColor=#3399FF;exitX=0.912;exitY=0.305;exitDx=0;exitDy=0;edgeStyle=orthogonalEdgeStyle;curved=1;exitPerimeter=0;entryX=0;entryY=0.5;entryDx=0;entryDy=0;" parent="1" source="9oqAk7pQBYiyUqh1W1pA-3" target="ss5tVFTJKGDQnba2Y7XJ-13" edge="1">
          <mxGeometry relative="1" as="geometry">
            <mxPoint x="980" y="-225" as="sourcePoint" />
            <mxPoint x="1100" y="-159" as="targetPoint" />
          </mxGeometry>
        </mxCell>
        <mxCell id="ss5tVFTJKGDQnba2Y7XJ-18" value="1" style="ellipse;whiteSpace=wrap;html=1;aspect=fixed;fontStyle=1;fontSize=16;fillColor=#3399FF;fontColor=#FFFFFF;strokeColor=none;" parent="1" vertex="1">
          <mxGeometry x="200" y="-205" width="30" height="30" as="geometry" />
        </mxCell>
        <mxCell id="ss5tVFTJKGDQnba2Y7XJ-20" value="2" style="ellipse;whiteSpace=wrap;html=1;aspect=fixed;fontStyle=1;fontSize=16;fillColor=#3399FF;fontColor=#FFFFFF;strokeColor=none;" parent="1" vertex="1">
          <mxGeometry x="990" y="-270" width="30" height="30" as="geometry" />
        </mxCell>
        <mxCell id="ss5tVFTJKGDQnba2Y7XJ-22" value="1" style="ellipse;whiteSpace=wrap;html=1;aspect=fixed;fontStyle=1;fontSize=16;fillColor=#33FF33;fontColor=#FFFFFF;strokeColor=none;" parent="1" vertex="1">
          <mxGeometry x="740" y="-50" width="30" height="30" as="geometry" />
        </mxCell>
        <mxCell id="ss5tVFTJKGDQnba2Y7XJ-23" value="2" style="ellipse;whiteSpace=wrap;html=1;aspect=fixed;fontStyle=1;fontSize=16;fillColor=#33FF33;fontColor=#FFFFFF;strokeColor=none;" parent="1" vertex="1">
          <mxGeometry x="470" y="-65" width="30" height="30" as="geometry" />
        </mxCell>
        <mxCell id="ss5tVFTJKGDQnba2Y7XJ-24" value="3" style="ellipse;whiteSpace=wrap;html=1;aspect=fixed;fontStyle=1;fontSize=16;fillColor=#33FF33;fontColor=#FFFFFF;strokeColor=none;" parent="1" vertex="1">
          <mxGeometry x="1160" y="-500" width="30" height="30" as="geometry" />
        </mxCell>
        <mxCell id="KQ7kOn_CwEpfCiYutB1n-1" value="When the status X changes, send..." style="rounded=1;whiteSpace=wrap;html=1;align=center;spacing=12;strokeColor=default;dashed=1;dashPattern=1 2;strokeWidth=2;" parent="1" vertex="1">
          <mxGeometry x="190" y="-300" width="140" height="40" as="geometry" />
        </mxCell>
        <mxCell id="KQ7kOn_CwEpfCiYutB1n-3" value="&lt;b&gt;Get status from...&lt;br style=&quot;border-color: var(--border-color);&quot;&gt;&lt;/b&gt;&amp;nbsp;* alarm: on/off" style="rounded=1;whiteSpace=wrap;html=1;align=left;spacing=12;dashed=1;dashPattern=1 4;" parent="1" vertex="1">
          <mxGeometry x="1120" y="-390" width="140" height="80" as="geometry" />
        </mxCell>
        <mxCell id="KQ7kOn_CwEpfCiYutB1n-4" style="rounded=0;orthogonalLoop=1;jettySize=auto;html=1;dashed=1;endArrow=open;endFill=0;strokeWidth=4;dashPattern=1 1;strokeColor=#33FF33;edgeStyle=orthogonalEdgeStyle;curved=1;entryX=0.875;entryY=0.5;entryDx=0;entryDy=0;entryPerimeter=0;exitX=0.547;exitY=0.01;exitDx=0;exitDy=0;exitPerimeter=0;" parent="1" source="KQ7kOn_CwEpfCiYutB1n-3" target="s5wiWTUJ9Tn86RPmhMHe-1" edge="1">
          <mxGeometry relative="1" as="geometry">
            <mxPoint x="970" y="-216" as="sourcePoint" />
            <mxPoint x="1100" y="-89" as="targetPoint" />
            <Array as="points">
              <mxPoint x="1197" y="-500" />
            </Array>
          </mxGeometry>
        </mxCell>
        <mxCell id="Wqh8fGnsDOdD3E51Sb5v-1" value="&lt;b&gt;Get status from...&lt;br style=&quot;border-color: var(--border-color);&quot;&gt;&lt;/b&gt;&amp;nbsp;* alarm: on/off" style="rounded=1;whiteSpace=wrap;html=1;align=left;spacing=12;dashed=1;dashPattern=1 4;" parent="1" vertex="1">
          <mxGeometry x="30" y="-357.5" width="140" height="80" as="geometry" />
        </mxCell>
        <mxCell id="Wqh8fGnsDOdD3E51Sb5v-2" style="rounded=0;orthogonalLoop=1;jettySize=auto;html=1;dashed=1;endArrow=open;endFill=0;strokeWidth=4;dashPattern=1 1;strokeColor=#3399FF;edgeStyle=orthogonalEdgeStyle;curved=1;entryX=0.16;entryY=0.55;entryDx=0;entryDy=0;entryPerimeter=0;exitX=0.5;exitY=0;exitDx=0;exitDy=0;" parent="1" source="Wqh8fGnsDOdD3E51Sb5v-1" target="s5wiWTUJ9Tn86RPmhMHe-1" edge="1">
          <mxGeometry relative="1" as="geometry">
            <mxPoint x="-480" y="-68.5" as="sourcePoint" />
            <mxPoint x="-820" y="-455.5" as="targetPoint" />
            <Array as="points">
              <mxPoint x="100" y="-490" />
            </Array>
          </mxGeometry>
        </mxCell>
        <mxCell id="Wqh8fGnsDOdD3E51Sb5v-3" style="rounded=0;orthogonalLoop=1;jettySize=auto;html=1;dashed=1;endArrow=none;endFill=0;strokeWidth=4;dashPattern=1 1;strokeColor=#3399FF;exitX=0.5;exitY=1;exitDx=0;exitDy=0;edgeStyle=orthogonalEdgeStyle;curved=1;entryX=0.5;entryY=0;entryDx=0;entryDy=0;" parent="1" source="Wqh8fGnsDOdD3E51Sb5v-1" target="9oqAk7pQBYiyUqh1W1pA-1" edge="1">
          <mxGeometry relative="1" as="geometry">
            <mxPoint x="-331.25" y="-172.5" as="sourcePoint" />
            <mxPoint x="-310" y="147.5" as="targetPoint" />
          </mxGeometry>
        </mxCell>
        <mxCell id="Wqh8fGnsDOdD3E51Sb5v-4" value="3" style="ellipse;whiteSpace=wrap;html=1;aspect=fixed;fontStyle=1;fontSize=16;fillColor=#3399FF;fontColor=#FFFFFF;strokeColor=none;" parent="1" vertex="1">
          <mxGeometry x="100" y="-490" width="30" height="30" as="geometry" />
        </mxCell>
        <mxCell id="Wqh8fGnsDOdD3E51Sb5v-11" value="" style="shape=image;verticalLabelPosition=bottom;labelBackgroundColor=default;verticalAlign=top;aspect=fixed;imageAspect=0;image=https://iot-labs.io/wp-content/uploads/2022/06/tago_color.png;" parent="1" vertex="1">
          <mxGeometry x="549.5500000000001" y="-220" width="134.91" height="37.55" as="geometry" />
        </mxCell>
        <mxCell id="fdffv_27cCGZLNuf_p9K-1" value="" style="group" vertex="1" connectable="0" parent="1">
          <mxGeometry x="-110" y="-110" width="350" height="270" as="geometry" />
        </mxCell>
        <mxCell id="9oqAk7pQBYiyUqh1W1pA-2" value="" style="rounded=1;whiteSpace=wrap;html=1;fillColor=none;" parent="fdffv_27cCGZLNuf_p9K-1" vertex="1">
          <mxGeometry width="350" height="270" as="geometry" />
        </mxCell>
        <mxCell id="9oqAk7pQBYiyUqh1W1pA-1" value="" style="shape=image;verticalLabelPosition=bottom;labelBackgroundColor=default;verticalAlign=top;aspect=fixed;imageAspect=0;image=https://d2t1xqejof9utc.cloudfront.net/screenshots/pics/7a44206bb022dde69b685ff3f801f8a8/large.png;" parent="fdffv_27cCGZLNuf_p9K-1" vertex="1">
          <mxGeometry x="110" y="60" width="200" height="200" as="geometry" />
        </mxCell>
        <mxCell id="9oqAk7pQBYiyUqh1W1pA-21" value="" style="shape=image;verticalLabelPosition=bottom;labelBackgroundColor=default;verticalAlign=top;aspect=fixed;imageAspect=0;image=https://cdn-reichelt.de/bilder/web/xxl_ws/A300/SBC-RFID-RC522_02.png;" parent="fdffv_27cCGZLNuf_p9K-1" vertex="1">
          <mxGeometry x="30" y="60" width="60" height="94.19" as="geometry" />
        </mxCell>
        <mxCell id="9oqAk7pQBYiyUqh1W1pA-22" value="" style="endArrow=none;html=1;rounded=0;entryX=0.2;entryY=0.35;entryDx=0;entryDy=0;entryPerimeter=0;exitX=1;exitY=0.5;exitDx=0;exitDy=0;" parent="fdffv_27cCGZLNuf_p9K-1" source="9oqAk7pQBYiyUqh1W1pA-21" target="9oqAk7pQBYiyUqh1W1pA-1" edge="1">
          <mxGeometry width="50" height="50" relative="1" as="geometry">
            <mxPoint x="-210" y="80" as="sourcePoint" />
            <mxPoint x="-160" y="30" as="targetPoint" />
          </mxGeometry>
        </mxCell>
        <mxCell id="fdffv_27cCGZLNuf_p9K-3" value="" style="group" vertex="1" connectable="0" parent="1">
          <mxGeometry x="1020" y="-110" width="250" height="270" as="geometry" />
        </mxCell>
        <mxCell id="9oqAk7pQBYiyUqh1W1pA-10" value="" style="rounded=1;whiteSpace=wrap;html=1;fillColor=none;" parent="fdffv_27cCGZLNuf_p9K-3" vertex="1">
          <mxGeometry width="250" height="270" as="geometry" />
        </mxCell>
        <mxCell id="9oqAk7pQBYiyUqh1W1pA-8" value="" style="sketch=0;pointerEvents=1;shadow=0;dashed=0;html=1;strokeColor=none;fillColor=#434445;aspect=fixed;labelPosition=center;verticalLabelPosition=bottom;verticalAlign=top;align=center;outlineConnect=0;shape=mxgraph.vvd.phone;" parent="fdffv_27cCGZLNuf_p9K-3" vertex="1">
          <mxGeometry x="75.25" y="50.68000000000001" width="99.5" height="168.64" as="geometry" />
        </mxCell>
        <mxCell id="KQ7kOn_CwEpfCiYutB1n-6" style="rounded=0;orthogonalLoop=1;jettySize=auto;html=1;dashed=1;endArrow=none;endFill=0;strokeWidth=4;dashPattern=1 1;strokeColor=#33FF33;exitX=0.5;exitY=1;exitDx=0;exitDy=0;edgeStyle=orthogonalEdgeStyle;curved=1;entryX=1.005;entryY=0.589;entryDx=0;entryDy=0;entryPerimeter=0;" parent="1" source="KQ7kOn_CwEpfCiYutB1n-3" target="9oqAk7pQBYiyUqh1W1pA-8" edge="1">
          <mxGeometry relative="1" as="geometry">
            <mxPoint x="1118.75" y="-320" as="sourcePoint" />
            <mxPoint x="1200.75" y="-293" as="targetPoint" />
          </mxGeometry>
        </mxCell>
        <mxCell id="9oqAk7pQBYiyUqh1W1pA-12" style="rounded=0;orthogonalLoop=1;jettySize=auto;html=1;dashed=1;endArrow=open;endFill=0;strokeWidth=4;dashPattern=1 1;strokeColor=#3399FF;exitX=1;exitY=0.25;exitDx=0;exitDy=0;edgeStyle=orthogonalEdgeStyle;curved=1;" parent="1" source="ss5tVFTJKGDQnba2Y7XJ-13" target="9oqAk7pQBYiyUqh1W1pA-8" edge="1">
          <mxGeometry relative="1" as="geometry">
            <mxPoint x="330" y="200" as="sourcePoint" />
            <mxPoint x="1070" y="-390" as="targetPoint" />
          </mxGeometry>
        </mxCell>
        <mxCell id="ss5tVFTJKGDQnba2Y7XJ-11" style="rounded=0;orthogonalLoop=1;jettySize=auto;html=1;dashed=1;endArrow=none;endFill=0;strokeWidth=4;dashPattern=1 1;strokeColor=#33FF33;entryX=1;entryY=0.5;entryDx=0;entryDy=0;targetPerimeterSpacing=12;edgeStyle=orthogonalEdgeStyle;curved=1;" parent="1" source="9oqAk7pQBYiyUqh1W1pA-8" target="ss5tVFTJKGDQnba2Y7XJ-10" edge="1">
          <mxGeometry relative="1" as="geometry">
            <mxPoint x="-173.75" y="1" as="sourcePoint" />
            <mxPoint x="-491.75" y="230" as="targetPoint" />
          </mxGeometry>
        </mxCell>
      </root>
    </mxGraphModel>
  </diagram>
  <diagram id="7edOcHMCXR8QCaOmuPbv" name="PÃ¡gina-2">
    <mxGraphModel dx="1050" dy="530" grid="1" gridSize="10" guides="1" tooltips="1" connect="1" arrows="1" fold="1" page="1" pageScale="1" pageWidth="690" pageHeight="600" math="0" shadow="0">
      <root>
        <mxCell id="0" />
        <mxCell id="1" parent="0" />
        <UserObject label="https://i0.wp.com/www.circuituncle.com/wp-content/uploads/2019/09/pir-sensor.png?fit=500%2C500&amp;ssl=1" link="https://i0.wp.com/www.circuituncle.com/wp-content/uploads/2019/09/pir-sensor.png?fit=500%2C500&amp;ssl=1" id="j5x6ep9BHdef_CNzWUiZ-1">
          <mxCell style="text;whiteSpace=wrap;" vertex="1" parent="1">
            <mxGeometry x="290" y="370" width="560" height="50" as="geometry" />
          </mxCell>
        </UserObject>
        <UserObject label="https://i0.wp.com/www.circuituncle.com/wp-content/uploads/2019/09/pir-sensor.png?fit=500%2C500&amp;ssl=1" link="https://i0.wp.com/www.circuituncle.com/wp-content/uploads/2019/09/pir-sensor.png?fit=500%2C500&amp;ssl=1" id="j5x6ep9BHdef_CNzWUiZ-3">
          <mxCell style="text;whiteSpace=wrap;" vertex="1" parent="1">
            <mxGeometry x="230" y="190" width="560" height="50" as="geometry" />
          </mxCell>
        </UserObject>
      </root>
    </mxGraphModel>
  </diagram>
</mxfile>
